<?xml version="1.0" encoding="UTF-8" standalone="no"?>
<svg
   xmlns:dc="http://purl.org/dc/elements/1.1/"
   xmlns:cc="http://creativecommons.org/ns#"
   xmlns:rdf="http://www.w3.org/1999/02/22-rdf-syntax-ns#"
   xmlns:svg="http://www.w3.org/2000/svg"
   xmlns="http://www.w3.org/2000/svg"
   xmlns:sodipodi="http://sodipodi.sourceforge.net/DTD/sodipodi-0.dtd"
   xmlns:inkscape="http://www.inkscape.org/namespaces/inkscape"
   width="106.40296mm"
   height="63.493889mm"
   viewBox="0 0 106.40296 63.493889"
   version="1.1"
   id="svg821"
   sodipodi:docname="Logo.svg"
   inkscape:version="0.92.5 (2060ec1f9f, 2020-04-08)">
  <sodipodi:namedview
     pagecolor="#ffffff"
     bordercolor="#666666"
     borderopacity="1"
     objecttolerance="10"
     gridtolerance="10"
     guidetolerance="10"
     inkscape:pageopacity="0"
     inkscape:pageshadow="2"
     inkscape:window-width="1680"
     inkscape:window-height="985"
     id="namedview11"
     showgrid="false"
     inkscape:zoom="1.966856"
     inkscape:cx="91.626985"
     inkscape:cy="119.8626"
     inkscape:window-x="1920"
     inkscape:window-y="15"
     inkscape:window-maximized="1"
     inkscape:current-layer="svg821" />
  <defs
     id="defs815" />
  <metadata
     id="metadata818">
    <rdf:RDF>
      <cc:Work
         rdf:about="">
        <dc:format>image/svg+xml</dc:format>
        <dc:type
           rdf:resource="http://purl.org/dc/dcmitype/StillImage" />
        <dc:title />
      </cc:Work>
    </rdf:RDF>
  </metadata>
  <path
     style="fill:#dde211;fill-opacity:1;stroke-width:1.4948045"
     d="M 225.63477 0.01953125 C 128.15651 0.01953125 49.134766 49.939772 49.134766 111.51953 C 49.144592 129.23168 49.134744 111.51753 54.220703 165.53125 C -5.2556812 207.81826 0.074681103 239.18193 0.1875 239.80664 C 2.2118716 236.63964 51.116044 174.8876 178.59961 218.86523 C 193.91014 221.58233 209.73173 222.97973 225.63477 223.01953 C 323.11296 223.01953 402.13477 173.09926 402.13477 111.51953 C 402.13477 49.939772 323.11296 0.01953125 225.63477 0.01953125 z M 0.1875 239.80664 C 0.085755119 239.9658 0.063747146 240.02314 0.1953125 239.86523 C 0.1953125 239.86523 0.18863386 239.81291 0.1875 239.80664 z M 311.45898 43.810547 L 311.45898 177.86328 C 243.71951 177.10163 225.17808 150.58327 114.23828 148.52539 L 114.23828 152.34375 L 66.78125 152.34375 L 66.78125 75.048828 L 114.23828 75.048828 L 114.23828 78.751953 C 233.15706 75.248921 243.51435 44.674331 311.45898 43.810547 z M 320.95703 65.716797 L 380.63477 65.716797 L 380.63477 86.568359 L 320.95703 86.568359 L 320.95703 65.716797 z M 320.95703 100.78516 L 380.63477 100.78516 L 380.63477 121.63867 L 320.95703 121.63867 L 320.95703 100.78516 z M 320.95703 135.10352 L 380.63477 135.10352 L 380.63477 155.95508 L 320.95703 155.95508 L 320.95703 135.10352 z "
     transform="scale(0.26458333)"
     id="path824" />
</svg>
